# xmcd
#
# Track frame offsets:
#   150
#   21057
#   34618
#   50070
#   67772
#   83783
#   99901
#   118620
#   133377
#   146619
#   160337
#   176779
#   191340
#   205601
#   219277
#   235594
#
# Disc length: 3373 seconds
#
# Revision: 0
# Processed by: cddbd v1.5.2PL0 Copyright (c) Steve Scherf et al.
# Submitted via: GXTranscoder 2.0.1939
#
DISCID=d40d2b10
DTITLE=Ruy and Henrique - Vol. 01
DYEAR=1900
DGENRE=Country
TTITLE0=Preciso de um tempo
TTITLE1=Vou zuar a noite inteira
TTITLE2=Pra curtir o trem que e baum
TTITLE3=Sem voce
TTITLE4=Isabela
TTITLE5=Que nem vagabundo
TTITLE6=Dor de amor
TTITLE7=Coração de vidro
TTITLE8=Chue Chue (A loira e a morena)
TTITLE9=O quanto o nosso amor valeu
TTITLE10=Pode ser pra valer
TTITLE11=Atitude
TTITLE12=Menina deixa eu te amar
TTITLE13=A coisa mais gostosa
TTITLE14=Louca
TTITLE15=Trato e trato
EXTD=
EXTT0=
EXTT1=
EXTT2=
EXTT3=
EXTT4=
EXTT5=
EXTT6=
EXTT7=
EXTT8=
EXTT9=
EXTT10=
EXTT11=
EXTT12=
EXTT13=
EXTT14=
EXTT15=
PLAYORDER=
